<svg xmlns="http://www.w3.org/2000/svg" width="12" height="12" viewBox="0 0 12 12">
    <g fill="none" fill-rule="evenodd">
        <g fill="#00AFCB" fill-rule="nonzero">
            <g>
                <g>
                    <path d="M289 12c1.096 0 2.11-.274 3.043-.822.904-.52 1.616-1.23 2.135-2.135.548-.932.822-1.947.822-3.043s-.274-2.11-.822-3.043c-.52-.904-1.23-1.616-2.135-2.135C291.111.274 290.096 0 289 0c-1.087 0-2.096.274-3.029.822-.904.529-1.62 1.245-2.149 2.15C283.274 3.903 283 4.912 283 6s.274 2.096.822 3.029c.52.904 1.23 1.62 2.135 2.149.932.548 1.947.822 3.043.822zm0-1.183c-.865 0-1.673-.22-2.423-.663-.73-.423-1.308-1-1.73-1.73-.443-.75-.664-1.559-.664-2.424s.22-1.673.663-2.423c.423-.73 1-1.308 1.73-1.73.75-.443 1.559-.664 2.424-.664s1.673.22 2.423.663c.73.423 1.308 1 1.73 1.73.443.75.664 1.559.664 2.424s-.22 1.673-.663 2.423c-.423.73-1 1.308-1.73 1.73-.75.443-1.559.664-2.424.664zm.591-6.62V2.986h-1.182v1.211h1.182zm0 4.817V5.41h-1.182v3.605h1.182z" transform="translate(-315 -222) translate(16 181) translate(16 41)"/>
                </g>
            </g>
        </g>
    </g>
</svg>
